<svg xmlns="http://www.w3.org/2000/svg" viewBox="0 0 32 32" shape-rendering="crispEdges">
  <rect x="13" y="4" width="6" height="1" fill="#2b2140"/>
  <rect x="11" y="5" width="2" height="1" fill="#2b2140"/>
  <rect x="13" y="5" width="6" height="1" fill="#8f88a8"/>
  <rect x="19" y="5" width="2" height="1" fill="#2b2140"/>
  <rect x="10" y="6" width="1" height="1" fill="#2b2140"/>
  <rect x="11" y="6" width="10" height="1" fill="#8f88a8"/>
  <rect x="21" y="6" width="1" height="1" fill="#2b2140"/>
  <rect x="9" y="7" width="1" height="1" fill="#2b2140"/>
  <rect x="10" y="7" width="1" height="1" fill="#b8b1cf"/>
  <rect x="11" y="7" width="11" height="1" fill="#8f88a8"/>
  <rect x="22" y="7" width="1" height="1" fill="#2b2140"/>
  <rect x="9" y="8" width="1" height="1" fill="#2b2140"/>
  <rect x="10" y="8" width="1" height="1" fill="#b8b1cf"/>
  <rect x="11" y="8" width="11" height="1" fill="#8f88a8"/>
  <rect x="22" y="8" width="1" height="1" fill="#2b2140"/>
  <rect x="8" y="9" width="1" height="1" fill="#2b2140"/>
  <rect x="9" y="9" width="2" height="1" fill="#b8b1cf"/>
  <rect x="11" y="9" width="12" height="1" fill="#8f88a8"/>
  <rect x="23" y="9" width="1" height="1" fill="#2b2140"/>
  <rect x="8" y="10" width="1" height="1" fill="#2b2140"/>
  <rect x="9" y="10" width="2" height="1" fill="#b8b1cf"/>
  <rect x="11" y="10" width="12" height="1" fill="#8f88a8"/>
  <rect x="23" y="10" width="1" height="1" fill="#2b2140"/>
  <rect x="8" y="11" width="1" height="1" fill="#2b2140"/>
  <rect x="9" y="11" width="2" height="1" fill="#b8b1cf"/>
  <rect x="11" y="11" width="12" height="1" fill="#8f88a8"/>
  <rect x="23" y="11" width="1" height="1" fill="#2b2140"/>
  <rect x="8" y="12" width="1" height="1" fill="#2b2140"/>
  <rect x="9" y="12" width="2" height="1" fill="#b8b1cf"/>
  <rect x="11" y="12" width="12" height="1" fill="#8f88a8"/>
  <rect x="23" y="12" width="1" height="1" fill="#2b2140"/>
  <rect x="8" y="13" width="1" height="1" fill="#2b2140"/>
  <rect x="9" y="13" width="2" height="1" fill="#b8b1cf"/>
  <rect x="11" y="13" width="12" height="1" fill="#8f88a8"/>
  <rect x="23" y="13" width="1" height="1" fill="#2b2140"/>
  <rect x="8" y="14" width="1" height="1" fill="#2b2140"/>
  <rect x="9" y="14" width="2" height="1" fill="#b8b1cf"/>
  <rect x="11" y="14" width="12" height="1" fill="#8f88a8"/>
  <rect x="23" y="14" width="1" height="1" fill="#2b2140"/>
  <rect x="8" y="15" width="1" height="1" fill="#2b2140"/>
  <rect x="9" y="15" width="2" height="1" fill="#b8b1cf"/>
  <rect x="11" y="15" width="9" height="1" fill="#8f88a8"/>
  <rect x="20" y="15" width="1" height="1" fill="#2b2140"/>
  <rect x="21" y="15" width="2" height="1" fill="#8f88a8"/>
  <rect x="23" y="15" width="1" height="1" fill="#2b2140"/>
  <rect x="8" y="16" width="1" height="1" fill="#2b2140"/>
  <rect x="9" y="16" width="2" height="1" fill="#b8b1cf"/>
  <rect x="11" y="16" width="10" height="1" fill="#8f88a8"/>
  <rect x="21" y="16" width="1" height="1" fill="#2b2140"/>
  <rect x="22" y="16" width="1" height="1" fill="#8f88a8"/>
  <rect x="23" y="16" width="1" height="1" fill="#2b2140"/>
  <rect x="8" y="17" width="1" height="1" fill="#2b2140"/>
  <rect x="9" y="17" width="2" height="1" fill="#b8b1cf"/>
  <rect x="11" y="17" width="9" height="1" fill="#8f88a8"/>
  <rect x="20" y="17" width="1" height="1" fill="#2b2140"/>
  <rect x="21" y="17" width="2" height="1" fill="#8f88a8"/>
  <rect x="23" y="17" width="1" height="1" fill="#2b2140"/>
  <rect x="8" y="18" width="1" height="1" fill="#2b2140"/>
  <rect x="9" y="18" width="2" height="1" fill="#b8b1cf"/>
  <rect x="11" y="18" width="9" height="1" fill="#8f88a8"/>
  <rect x="20" y="18" width="1" height="1" fill="#2b2140"/>
  <rect x="21" y="18" width="2" height="1" fill="#8f88a8"/>
  <rect x="23" y="18" width="1" height="1" fill="#2b2140"/>
  <rect x="8" y="19" width="1" height="1" fill="#2b2140"/>
  <rect x="9" y="19" width="2" height="1" fill="#b8b1cf"/>
  <rect x="11" y="19" width="12" height="1" fill="#8f88a8"/>
  <rect x="23" y="19" width="1" height="1" fill="#2b2140"/>
  <rect x="8" y="20" width="1" height="1" fill="#2b2140"/>
  <rect x="9" y="20" width="2" height="1" fill="#b8b1cf"/>
  <rect x="11" y="20" width="12" height="1" fill="#8f88a8"/>
  <rect x="23" y="20" width="1" height="1" fill="#2b2140"/>
  <rect x="8" y="21" width="1" height="1" fill="#2b2140"/>
  <rect x="9" y="21" width="2" height="1" fill="#b8b1cf"/>
  <rect x="11" y="21" width="12" height="1" fill="#8f88a8"/>
  <rect x="23" y="21" width="1" height="1" fill="#2b2140"/>
  <rect x="8" y="22" width="1" height="1" fill="#2b2140"/>
  <rect x="9" y="22" width="2" height="1" fill="#b8b1cf"/>
  <rect x="11" y="22" width="12" height="1" fill="#8f88a8"/>
  <rect x="23" y="22" width="1" height="1" fill="#2b2140"/>
  <rect x="8" y="23" width="1" height="1" fill="#2b2140"/>
  <rect x="9" y="23" width="2" height="1" fill="#b8b1cf"/>
  <rect x="11" y="23" width="12" height="1" fill="#8f88a8"/>
  <rect x="23" y="23" width="1" height="1" fill="#2b2140"/>
  <rect x="6" y="24" width="1" height="1" fill="#4fa66a"/>
  <rect x="8" y="24" width="1" height="1" fill="#2b2140"/>
  <rect x="9" y="24" width="2" height="1" fill="#b8b1cf"/>
  <rect x="11" y="24" width="12" height="1" fill="#8f88a8"/>
  <rect x="23" y="24" width="1" height="1" fill="#2b2140"/>
  <rect x="25" y="24" width="1" height="1" fill="#4fa66a"/>
  <rect x="6" y="25" width="1" height="1" fill="#4fa66a"/>
  <rect x="8" y="25" width="1" height="1" fill="#2b2140"/>
  <rect x="9" y="25" width="1" height="1" fill="#4fa66a"/>
  <rect x="10" y="25" width="1" height="1" fill="#b8b1cf"/>
  <rect x="11" y="25" width="11" height="1" fill="#8f88a8"/>
  <rect x="22" y="25" width="1" height="1" fill="#4fa66a"/>
  <rect x="23" y="25" width="1" height="1" fill="#2b2140"/>
  <rect x="25" y="25" width="1" height="1" fill="#4fa66a"/>
  <rect x="5" y="26" width="22" height="1" fill="#7bd88f"/>
  <rect x="4" y="27" width="24" height="1" fill="#7bd88f"/>
  <rect x="5" y="28" width="22" height="1" fill="#2b2140"/>
</svg>
